<svg width="165" height="70" viewBox="0 0 165 70" fill="none" xmlns="http://www.w3.org/2000/svg">
<path fill-rule="evenodd" clip-rule="evenodd" d="M23.6161 33.9783C23.905 33.2764 24.2197 32.7138 24.0288 31.7005C23.8766 30.8839 23.4459 30.1848 22.8863 29.9526C22.5278 30.9413 21.9913 32.4735 23.1777 33.6615C23.4795 33.9619 23.2551 33.809 23.6136 33.9783M32.6431 18.5966L30.3373 18.6321C31.0518 18.023 31.3251 17.1846 31.2632 16.2068C30.3064 16.3161 29.5713 17.1054 29.3934 18.0613C29.1252 19.4951 29.4759 18.5611 28.7589 19.3941C28.4236 19.7819 28.3385 20.3581 28.4417 21C29.3057 20.8825 29.5688 19.9813 29.494 19.0008L32.3284 18.9489C31.9828 20.4947 32.1917 22.0924 33.2569 22.5949C34.2344 21.3878 33.6438 20.0386 33.1099 18.9953L35.9366 19.2193C35.6916 20.7787 35.8825 21.975 36.8935 22.5021C37.742 21.6418 37.1669 20.3418 36.878 19.5006C37.595 19.6262 38.4435 20.0113 39.0625 20.3472C38.459 22.2481 38.6421 23.6546 39.9755 24.6624C40.904 23.6819 40.5171 22.2071 40.2102 21.0901C41.7758 21.7538 43.4006 24.1817 44.0609 25.7767C45.0925 28.273 45.0332 30.6136 44.2388 33.2327C43.8391 32.61 43.5811 31.3346 42.8538 30.2066C42.0053 28.8902 41.1929 28.4696 40.7751 27.8961C42.1884 27.6257 43.1195 27.1641 43.5115 25.9051C42.6527 25.3042 41.2212 25.7767 40.5146 26.4759C40.1071 26.8774 40.2025 26.973 39.8646 27.3335C38.1856 26.8528 38.1753 26.454 36.0114 26.5059C36.2796 25.9324 36.6304 25.367 36.6356 24.5067C36.6407 23.6901 36.339 22.8626 35.8799 22.5376C34.7064 23.7065 34.7244 24.8181 35.3718 26.6124C33.4426 26.4704 31.6682 25.8286 30.1362 24.7689C29.6126 24.4084 29.2541 24.0206 28.826 23.7147C29.1922 23.2176 30.033 23.1685 30.5849 22.3792C30.9795 21.8166 31.3664 20.9371 31.2246 20.0031C30.3425 20.0632 29.7261 20.5138 29.2876 21.0054C28.4597 21.934 28.777 21.8985 28.3411 23.0483C27.5699 22.158 26.7833 20.6395 26.626 19.0144C28.1245 18.9188 28.9988 18.0531 29.2025 16.5318C27.508 16.4881 26.9045 17.4522 26.4506 18.7741C25.7542 18.5392 25.4938 18.105 24.4363 18.1705C23.7013 18.2142 22.943 18.5693 22.6516 19.1401C24.1603 20.6258 25.4628 19.5279 26.3216 19.1401C26.4609 19.9157 26.6002 20.5384 26.871 21.2348C27.1573 21.9722 27.5906 22.5512 27.8175 23.1876C26.4377 23.163 25.2694 23.9441 25.1791 25.3124C26.7446 25.3834 27.5235 24.6078 27.9155 23.3296C28.0806 23.4525 27.9774 23.3761 28.1193 23.5153C28.2225 23.6164 28.256 23.6574 28.3514 23.7529C29.4501 24.8372 30.5179 25.9433 32.1092 26.3612C31.9519 26.495 32.0705 26.4322 31.8255 26.525C31.1807 26.7708 30.3322 26.708 29.6384 26.8419C28.942 26.9757 27.7634 27.3854 27.1857 27.4291C26.0586 27.5164 23.3995 26.3885 22.7676 25.7904L23.4356 25.3097C24.1707 24.7498 24.3693 23.7748 24.2609 22.8162C23.0513 22.5731 22.4014 24.5231 22.4169 25.5364C21.4626 25.0803 20.32 23.5945 19.8558 22.1744C20.6631 21.5271 21.3929 21.9996 21.7257 20.3827C20.6424 20.3226 19.7604 20.7842 19.5257 21.6527C19.4199 22.0487 19.6546 22.5485 19.8377 22.9637C20.0699 23.4908 20.32 23.7584 20.4954 24.209C19.3787 24.067 17.7899 24.3238 17.5423 25.7358C19.6443 26.5087 19.9899 24.982 20.8513 24.4658C21.1634 24.9874 21.6766 25.2933 22.0842 25.7576C20.7378 26.028 19.5205 26.4349 19.1543 28.0108C20.3071 28.8847 22.373 27.5246 22.7676 26.2437C23.3428 26.465 23.8328 26.7845 24.4724 27.0385C25.1249 27.298 25.7568 27.4427 26.4119 27.6694C26.0276 27.9589 23.5052 28.8547 21.2537 30.5835C20.7275 30.9877 20.271 31.5531 19.701 31.8617C18.7803 30.4661 17.7564 29.543 16 30.152C16.1367 30.8621 16.6551 31.4083 17.1013 31.6951C17.8776 32.1921 18.2748 32.2058 19.2755 32.1785L19.1568 32.3151C18.1175 33.4348 17.9679 34.418 18.3289 35.9775C19.6108 35.5542 20.1318 34.0466 19.8274 32.3287C20.3484 31.5695 22.3653 30.2121 23.4021 29.5976C24.5472 28.9175 26.5692 28.0381 27.9981 27.765C27.2991 29.0923 26.7292 30.1192 27.5725 31.6896L27.962 32.1375C28.4417 31.7907 28.8543 31.0014 28.9291 30.111C29.0375 28.7782 28.581 28.5324 28.2534 27.653C30.4534 27.3198 31.8513 27.003 34.2034 27.1505C34.0822 27.4127 33.489 27.7732 33.293 27.948C32.5012 28.6499 31.9622 29.939 30.7191 31.1707L28.8157 33.006C28.2225 33.5004 27.3894 34.4235 26.7498 34.7703C26.3526 33.9237 26.4532 33.0962 25.1946 32.8585C25.1585 34.2897 25.5479 34.2979 26.2881 35.1308C25.9915 35.4668 24.2171 36.6849 23.7116 36.8296C23.1803 36.9826 22.7599 36.45 22.1177 36.4309C21.5529 36.4145 20.8539 36.6302 20.5702 37.1136C21.2201 37.8729 22.2028 37.9521 23.188 37.4223L25.6666 36.0567C25.4809 36.8842 25.4473 37.1628 25.7775 37.9111C26.693 37.5069 26.7317 36.4991 26.5022 35.3166C27.9284 34.6474 29.9092 32.0856 31.1317 31.1816L30.3219 33.3665C30.2239 33.1453 30.327 33.2027 30.0407 33.1453C28.9601 32.935 28.0265 34.4453 27.9774 35.4504C28.973 35.434 29.2567 35.0653 29.8189 34.6092C29.6874 35.4886 29.6797 36.1905 30.2703 36.7122C31.4644 35.6661 30.2935 34.6311 30.5437 33.7735C31.5495 34.784 31.5702 35.6798 33.6799 35.4285C33.7366 34.6966 33.0841 34.0548 32.7514 33.7844C32.1737 33.3201 31.6475 33.2027 30.7732 33.2027C30.8944 32.2932 31.663 30.8047 32.1453 30.2093C32.8236 30.9222 33.5432 31.8863 35.0804 31.3537C34.776 30.1738 33.8295 29.7369 32.4961 29.6631C32.7308 29.095 33.7702 28.0627 34.3737 27.6858C35.3486 27.0767 36.2435 26.9156 37.5563 27.104C37.3448 27.4837 36.8832 27.7814 36.6098 28.0736C35.3099 29.4637 35.5626 31.0505 35.8128 32.8285C34.9256 33.1672 34.4872 34.1067 34.66 35.3848C35.4492 35.2046 35.8979 34.5573 36.0965 33.7025L36.6072 34.489C36.847 34.8659 36.9399 34.8741 36.8135 35.3848C36.5943 36.2561 36.6717 36.8241 37.3216 37.2611C37.6724 36.7996 37.6363 36.4445 37.5589 35.7972C38.2656 36.2779 38.1624 36.4718 39.176 36.379C39.0341 34.7949 37.7291 35.7918 36.9089 34.3989C36.7619 34.1476 36.5427 33.7243 36.4834 33.4321C36.9528 33.9455 38.2991 34.5109 39.0754 33.7298C38.9336 33.3392 38.5596 33.0361 38.0205 32.8667C37.2391 32.6209 36.9683 32.905 36.3286 33.0333C35.2403 30.6463 36.6201 27.4864 38.6963 27.5055C38.6705 27.5274 38.6318 27.5219 38.6189 27.5683C38.4951 27.9562 36.6768 28.0381 36.4963 30.6108C38.1856 30.5453 39.3127 29.5511 39.5629 27.9534C40.935 28.4368 42.4412 30.4278 43.0344 31.9955C44.44 35.7098 42.9931 34.9042 42.8022 38.0805C42.0827 36.7231 41.8892 35.3739 39.6402 35.1582C39.4365 37.0263 41.1181 39.0254 42.8641 38.8097C42.9725 39.9021 43.2691 40.5385 43.5012 41.4862C43.3078 41.3606 43.4393 41.4452 43.2871 41.3141L42.5443 40.8061C42.0182 40.5631 41.7113 40.5685 41.131 40.5931C41.2909 41.9696 42.6269 43.1303 44.0428 42.7425C44.4838 43.4226 44.5251 44.261 45.5026 43.9224C45.6058 43.327 45.3607 43.1058 45.0951 42.6005C45.8688 41.2704 46.2815 41.2322 45.6083 39.4297C44.8191 39.782 44.7134 40.6313 44.6515 41.7183C44.5561 41.2295 44.0119 40.1561 43.8313 39.3313C43.2433 36.6849 44.3832 36.3708 45.6161 34.6993C46.119 34.0193 46.5497 33.4649 47.0552 32.722C48.2622 30.9549 49.7504 27.4127 48.5666 25.0939C48.2313 24.4385 47.5839 23.6464 46.8076 23.4662C46.1396 25.7494 46.8334 26.6589 47.8212 27.9015C47.7542 27.9725 47.7567 27.9725 47.6226 28.0681C46.3279 28.9667 45.5671 29.7314 45.5825 31.6487C46.5884 31.6104 47.0011 31.2308 47.6407 30.8512C47.081 32.0802 45.304 34.3962 44.4993 35.1117C45.01 32.3943 46.3073 30.3568 45.0229 26.5223C44.5844 25.2114 44.0196 24.209 43.3284 23.2968C42.2942 21.9286 41.8867 21.8575 40.8498 20.7979C42.2787 20.817 43.6095 20.4838 44.1073 19.4378C42.3612 17.9739 40.6977 18.5829 39.1966 19.831L37.3758 19.1155C38.655 18.6976 39.4932 18.0449 39.8053 16.6684C37.8606 16.4745 36.5324 17.19 36.0011 18.8151L34.1751 18.643C35.1526 18.3753 36.4292 17.2501 36.437 16.0375C33.6283 15.7098 33.1873 17.6106 32.6302 18.6157L32.6431 18.5966Z" fill="white"/>
<path fill-rule="evenodd" clip-rule="evenodd" d="M52.9553 30.495C52.5062 23.3254 48.3015 16.601 41.9801 13.3245C36.1813 10.3215 29.9361 10.2545 24.048 12.9706C21.4112 14.1879 18.8558 16.3194 17.049 18.5395C16.4974 19.2178 15.749 20.2903 15.3051 21.0464C14.6039 22.2476 13.9788 23.5185 13.5193 24.9342C12.0984 29.2992 13.0991 33.3961 11.5627 36.7342C11.0401 38.1124 10.4281 39.512 9.85036 40.9169C9.24369 42.397 8.35076 43.9306 9.7243 45.3034C10.3756 45.9549 11.8279 46.1962 12.8758 46.5126C13.3984 46.6708 13.6191 46.5716 13.7005 47.1588C13.9368 48.8721 14.2231 50.5774 14.5015 52.2558C14.793 53.9986 14.73 55.5591 15.8409 56.8112C17.0516 58.1732 18.2807 58.1384 20.3686 58.1384C21.5136 58.1384 25.2849 58.1893 26.128 58.0874C27.7431 57.8917 29.0825 57.1839 30.0779 56.1838C31.8506 54.4035 32.9458 50.521 31.2282 50.2529C29.8914 50.0438 29.9728 51.4273 29.915 51.9233C29.7259 53.5401 28.7621 54.7386 27.5409 55.425C26.1358 56.216 24.0532 55.9854 22.3015 55.9854C21.3455 55.9854 20.3922 55.9854 19.4362 55.9854C16.936 55.9854 16.9991 54.8646 16.7286 52.8671C16.6104 51.993 16.4397 51.1109 16.3241 50.2797C16.2059 49.4325 16.0483 48.5906 15.9275 47.754C15.6229 45.6493 15.4706 44.979 13.3433 44.3998C10.6435 43.6652 10.9114 43.9387 11.5128 42.4667C11.6782 42.0645 11.8253 41.6918 12.0039 41.2735C13.0281 38.8792 14.1758 36.324 14.4673 33.7125C14.7011 31.6319 14.2809 30.4655 14.99 27.5162C15.6281 24.8564 16.6288 22.7275 18.131 20.6657C21.7185 15.7456 27.575 12.7588 33.7704 13.2012C39.2409 13.5926 43.5585 16.1076 46.7993 20.0329C47.8472 21.4137 48.6009 22.6096 49.3153 24.2049C51.5739 29.2429 51.3743 35.4687 48.6955 40.5121C48.3042 41.2467 47.905 41.8205 47.4427 42.5686C47.012 43.263 46.731 43.9226 46.4632 44.6814C45.8775 46.3893 45.8565 47.679 45.8565 49.7408V58.1732C45.8565 58.7417 45.7278 59.9616 46.8834 59.9992C48.0573 60.0367 47.9654 58.8141 47.9654 58.243V49.7435C47.9654 47.6897 47.9654 46.5475 48.6692 44.8422C48.9975 44.0486 50.1531 42.3272 50.702 41.2708C52.4038 37.989 53.1916 34.2058 52.9605 30.4977" fill="#404041"/>
<path d="M155.996 47.458C155.996 50.0803 154.862 51.7886 152.59 52.5793C151.797 52.8622 150.946 53 150.034 53C148.118 53 146.344 52.4161 144.708 51.2446L146.409 48.0021C147.604 49.101 148.774 49.6523 149.919 49.6523C150.433 49.6523 150.874 49.529 151.23 49.286C151.646 49.0104 151.858 48.6187 151.858 48.1145C151.858 47.6539 151.628 47.2694 151.165 46.9648C150.82 46.7363 150.239 46.5005 149.424 46.2648C148.437 45.971 147.816 45.7642 147.561 45.6518C147.156 45.4777 146.811 45.271 146.527 45.0389C145.713 44.357 145.303 43.3269 145.303 41.9523C145.303 40.5777 145.723 39.3264 146.57 38.3798C147.554 37.2699 148.875 36.715 150.519 36.715C152.163 36.715 153.789 37.1321 155.375 37.9736L153.789 41.1073C152.92 40.4109 152.044 40.0627 151.161 40.0627C150.734 40.0627 150.354 40.1751 150.016 40.3964C149.636 40.6466 149.446 40.9803 149.446 41.4047C149.446 41.829 149.693 42.17 150.196 42.471C150.422 42.6052 151.093 42.8409 152.217 43.1782C153.624 43.5953 154.629 44.1865 155.225 44.9518C155.742 45.601 156 46.4389 156 47.4617M138.11 42.0902C138.11 41.5352 137.909 41.071 137.511 40.6938C137.137 40.3383 136.534 40.1606 135.702 40.1606H134.959V44.0414H135.702C136.542 44.0414 137.145 43.8637 137.511 43.5083C137.909 43.1202 138.11 42.6487 138.11 42.0938V42.0902ZM143.699 52.5865H138.756L134.962 46.6637V52.5865H130.985V37.0886H137.177C138.99 37.0886 140.328 37.6399 141.197 38.7389C141.897 39.6238 142.252 40.6684 142.252 41.8653C142.252 43.2399 141.85 44.3352 141.043 45.1513C140.526 45.6736 139.812 46.0363 138.907 46.243L143.703 52.5865H143.699ZM128.447 52.5865H119.732V37.0886H128.447V40.4326H123.709V43.1057H128.192V46.4497H123.709V49.2389H128.447V52.5829V52.5865ZM117.98 40.4363H114.671V52.5865H110.694V40.4363H107.453V37.0922H117.984V40.4363H117.98ZM107.147 40.4363H103.838V52.5865H99.8609V40.4363H96.6196V37.0922H107.151V40.4363H107.147ZM89.9935 46.8269L88.328 41.8798L86.6374 46.8269H89.9935ZM96.293 52.5902H92.0395L91.0524 49.8953H85.5533L84.498 52.5902H80.2912L86.1815 37.0922H90.5283L96.2966 52.5902H96.293ZM79.1964 52.5902H75.2193L74.0886 43.6679L70.3879 52.5902H68.8085L65.2765 43.6679L63.9771 52.5902H60L62.5988 37.0922H66.5543L69.652 45.3617L72.9256 37.0922H76.9028L79.2036 52.5902H79.1964ZM116.749 25.7435C116.749 24.6699 116.455 23.7342 115.863 22.9363C115.073 21.8808 113.903 21.3477 112.345 21.3477H111.437V30.1539H112.345C113.914 30.1539 115.08 29.6244 115.863 28.5653C116.451 27.7601 116.749 26.8171 116.749 25.7435ZM120.888 25.7435C120.888 27.3575 120.411 28.8482 119.449 30.2228C118.487 31.5974 117.259 32.5513 115.762 33.0808C114.969 33.3601 114.165 33.4979 113.339 33.4979H107.46V18H113.339C114.775 18 116.107 18.4062 117.331 19.215C118.533 20.0021 119.459 21.0539 120.102 22.3705C120.626 23.4586 120.888 24.5829 120.888 25.7399V25.7435ZM104.236 33.4979H100.259L92.9261 24.0062V33.4979H88.949V18H92.9261L100.259 27.4808V18H104.236V33.4979ZM85.7149 33.4979H81.7377V18H85.7149V33.4979ZM79.1964 33.4979H75.2193L74.0886 24.5756L70.3879 33.4979H68.8085L65.2765 24.5756L63.9771 33.4979H60L62.5988 18H66.5543L69.652 26.2694L72.9256 18H76.9028L79.2036 33.4979H79.1964Z" fill="white"/>
</svg>
