<?xml version="1.0" encoding="UTF-8"?>
<svg id="Layer_1" data-name="Layer 1" xmlns="http://www.w3.org/2000/svg" viewBox="0 0 445.95 182.75">
  <defs>
    <style>
      .cls-1, .cls-2 {
        fill: #fff;
      }

      .cls-2, .cls-3 {
        fill-rule: evenodd;
      }

      .cls-3 {
        fill: #404041;
      }
    </style>
  </defs>
  <path class="cls-2" d="m53.99,81.66c1.12-2.57,2.34-4.63,1.6-8.34-.59-2.99-2.26-5.55-4.43-6.4-1.39,3.62-3.47,9.23,1.13,13.58,1.17,1.1.3.54,1.69,1.16m35.01-56.32l-8.94.13c2.77-2.23,3.83-5.3,3.59-8.88-3.71.4-6.56,3.29-7.25,6.79-1.04,5.25.32,1.83-2.46,4.88-1.3,1.42-1.63,3.53-1.23,5.88,3.35-.43,4.37-3.73,4.08-7.32l10.99-.19c-1.34,5.66-.53,11.51,3.6,13.35,3.79-4.42,1.5-9.36-.57-13.18l10.96.82c-.95,5.71-.21,10.09,3.71,12.02,3.29-3.15,1.06-7.91-.06-10.99,2.78.46,6.07,1.87,8.47,3.1-2.34,6.96-1.63,12.11,3.54,15.8,3.6-3.59,2.1-8.99.91-13.08,6.07,2.43,12.37,11.32,14.93,17.16,4,9.14,3.77,17.71.69,27.3-1.55-2.28-2.55-6.95-5.37-11.08-3.29-4.82-6.44-6.36-8.06-8.46,5.48-.99,9.09-2.68,10.61-7.29-3.33-2.2-8.88-.47-11.62,2.09-1.58,1.47-1.21,1.82-2.52,3.14-6.51-1.76-6.55-3.22-14.94-3.03,1.04-2.1,2.4-4.17,2.42-7.32.02-2.99-1.15-6.02-2.93-7.21-4.55,4.28-4.48,8.35-1.97,14.92-7.48-.52-14.36-2.87-20.3-6.75-2.03-1.32-3.42-2.74-5.08-3.86,1.42-1.82,4.68-2,6.82-4.89,1.53-2.06,3.03-5.28,2.48-8.7-3.42.22-5.81,1.87-7.51,3.67-3.21,3.4-1.98,3.27-3.67,7.48-2.99-3.26-6.04-8.82-6.65-14.77,5.81-.35,9.2-3.52,9.99-9.09-6.57-.16-8.91,3.37-10.67,8.21-2.7-.86-3.71-2.45-7.81-2.21-2.85.16-5.79,1.46-6.92,3.55,5.85,5.44,10.9,1.42,14.23,0,.54,2.84,1.08,5.12,2.13,7.67,1.11,2.7,2.79,4.82,3.67,7.15-5.35-.09-9.88,2.77-10.23,7.78,6.07.26,9.09-2.58,10.61-7.26.64.45.24.17.79.68.4.37.53.52.9.87,4.26,3.97,8.4,8.02,14.57,9.55-.61.49-.15.26-1.1.6-2.5.9-5.79.67-8.48,1.16-2.7.49-7.27,1.99-9.51,2.15-4.37.32-14.68-3.81-17.13-6l2.59-1.76c2.85-2.05,3.62-5.62,3.2-9.13-4.69-.89-7.21,6.25-7.15,9.96-3.7-1.67-8.13-7.11-9.93-12.31,3.13-2.37,5.96-.64,7.25-6.56-4.2-.22-7.62,1.47-8.53,4.65-.41,1.45.5,3.28,1.21,4.8.9,1.93,1.87,2.91,2.55,4.56-4.33-.52-10.49.42-11.45,5.59,8.15,2.83,9.49-2.76,12.83-4.65,1.21,1.91,3.2,3.03,4.78,4.73-5.22.99-9.94,2.48-11.36,8.25,4.47,3.2,12.48-1.78,14.01-6.47,2.23.81,4.13,1.98,6.61,2.91,2.53.95,4.98,1.48,7.52,2.31-1.49,1.06-11.27,4.34-20,10.67-2.04,1.48-3.81,3.55-6.02,4.68-3.57-5.11-7.54-8.49-14.35-6.26.53,2.6,2.54,4.6,4.27,5.65,3.01,1.82,4.55,1.87,8.43,1.77l-.46.5c-4.03,4.1-4.61,7.7-3.21,13.41,4.97-1.55,6.99-7.07,5.81-13.36,2.02-2.78,9.84-7.75,13.86-10,4.44-2.49,12.28-5.71,17.82-6.71-2.71,4.86-4.92,8.62-1.65,14.37l1.51,1.64c1.86-1.27,3.46-4.16,3.75-7.42.42-4.88-1.35-5.78-2.62-9,8.53-1.22,13.95-2.38,23.07-1.84-.47.96-2.77,2.28-3.53,2.92-3.07,2.57-5.16,7.29-9.98,11.8l-7.38,6.72c-2.3,1.81-5.53,5.19-8.01,6.46-1.54-3.1-1.15-6.13-6.03-7-.14,5.24,1.37,5.27,4.24,8.32-1.15,1.23-8.03,5.69-9.99,6.22-2.06.56-3.69-1.39-6.18-1.46-2.19-.06-4.9.73-6,2.5,2.52,2.78,6.33,3.07,10.15,1.13l9.61-5c-.72,3.03-.85,4.05.43,6.79,3.55-1.48,3.7-5.17,2.81-9.5,5.53-2.45,13.21-11.83,17.95-15.14l-3.14,8c-.38-.81.02-.6-1.09-.81-4.19-.77-7.81,4.76-8,8.44,3.86-.06,4.96-1.41,7.14-3.08-.51,3.22-.54,5.79,1.75,7.7,4.63-3.83.09-7.62,1.06-10.76,3.9,3.7,3.98,6.98,12.16,6.06.22-2.68-2.31-5.03-3.6-6.02-2.24-1.7-4.28-2.13-7.67-2.13.47-3.33,3.45-8.78,5.32-10.96,2.63,2.61,5.42,6.14,11.38,4.19-1.18-4.32-4.85-5.92-10.02-6.19.91-2.08,4.94-5.86,7.28-7.24,3.78-2.23,7.25-2.82,12.34-2.13-.82,1.39-2.61,2.48-3.67,3.55-5.04,5.09-4.06,10.9-3.09,17.41-3.44,1.24-5.14,4.68-4.47,9.36,3.06-.66,4.8-3.03,5.57-6.16l1.98,2.88c.93,1.38,1.29,1.41.8,3.28-.85,3.19-.55,5.27,1.97,6.87,1.36-1.69,1.22-2.99.92-5.36,2.74,1.76,2.34,2.47,6.27,2.13-.55-5.8-5.61-2.15-8.79-7.25-.57-.92-1.42-2.47-1.65-3.54,1.82,1.88,7.04,3.95,10.05,1.09-.55-1.43-2-2.54-4.09-3.16-3.03-.9-4.08.14-6.56.61-4.22-8.74,1.13-20.31,9.18-20.24-.1.08-.25.06-.3.23-.48,1.42-7.53,1.72-8.23,11.14,6.55-.24,10.92-3.88,11.89-9.73,5.32,1.77,11.16,9.06,13.46,14.8,5.45,13.6-.16,10.65-.9,22.28-2.79-4.97-3.54-9.91-12.26-10.7-.79,6.84,5.73,14.16,12.5,13.37.42,4,1.57,6.33,2.47,9.8-.75-.46-.24-.15-.83-.63l-2.88-1.86c-2.04-.89-3.23-.87-5.48-.78.62,5.04,5.8,9.29,11.29,7.87,1.71,2.49,1.87,5.56,5.66,4.32.4-2.18-.55-2.99-1.58-4.84,3-4.87,4.6-5.01,1.99-11.61-3.06,1.29-3.47,4.4-3.71,8.38-.37-1.79-2.48-5.72-3.18-8.74-2.28-9.69,2.14-10.84,6.92-16.96,1.95-2.49,3.62-4.52,5.58-7.24,4.68-6.47,10.45-19.44,5.86-27.93-1.3-2.4-3.81-5.3-6.82-5.96-2.59,8.36.1,11.69,3.93,16.24-.26.26-.25.26-.77.61-5.02,3.29-7.97,6.09-7.91,13.11,3.9-.14,5.5-1.53,7.98-2.92-2.17,4.5-9.06,12.98-12.18,15.6,1.98-9.95,7.01-17.41,2.03-31.45-1.7-4.8-3.89-8.47-6.57-11.81-4.01-5.01-5.59-5.27-9.61-9.15,5.54.07,10.7-1.15,12.63-4.98-6.77-5.36-13.22-3.13-19.04,1.44l-7.06-2.62c4.96-1.53,8.21-3.92,9.42-8.96-7.54-.71-12.69,1.91-14.75,7.86l-7.08-.63c3.79-.98,8.74-5.1,8.77-9.54-10.89-1.2-12.6,5.76-14.76,9.44Z"/>
  <path class="cls-3" d="m167.38,72.71c-1.71-26.74-17.72-51.82-41.79-64.04-22.08-11.2-45.86-11.45-68.28-1.32-10.04,4.54-19.77,12.49-26.65,20.77-2.1,2.53-4.95,6.53-6.64,9.35-2.67,4.48-5.05,9.22-6.8,14.5-5.41,16.28-1.6,31.56-7.45,44.01-1.99,5.14-4.32,10.36-6.52,15.6-2.31,5.52-5.71,11.24-.48,16.36,2.48,2.43,8.01,3.33,12,4.51,1.99.59,2.83.22,3.14,2.41.9,6.39,1.99,12.75,3.05,19.01,1.11,6.5.87,12.32,5.1,16.99,4.61,5.08,9.29,4.95,17.24,4.95,4.36,0,18.72.19,21.93-.19,6.15-.73,11.25-3.37,15.04-7.1,6.75-6.64,10.92-21.12,4.38-22.12-5.09-.78-4.78,4.38-5,6.23-.72,6.03-4.39,10.5-9.04,13.06-5.35,2.95-13.28,2.09-19.95,2.09-3.64,0-7.27,0-10.91,0-9.52,0-9.28-4.18-10.31-11.63-.45-3.26-1.1-6.55-1.54-9.65-.45-3.16-1.05-6.3-1.51-9.42-1.16-7.85-1.74-10.35-9.84-12.51-10.28-2.74-9.26-1.72-6.97-7.21.63-1.5,1.19-2.89,1.87-4.45,3.9-8.93,8.27-18.46,9.38-28.2.89-7.76-.71-12.11,1.99-23.11,2.43-9.92,6.24-17.86,11.96-25.55,13.66-18.35,35.96-29.49,59.55-27.84,20.83,1.46,37.27,10.84,49.61,25.48,3.99,5.15,6.86,9.61,9.58,15.56,8.6,18.79,7.84,42.01-2.36,60.82-1.49,2.74-3.01,4.88-4.77,7.67-1.64,2.59-2.71,5.05-3.73,7.88-2.23,6.37-2.31,11.18-2.31,18.87v31.45c0,2.12-.49,6.67,3.91,6.81,4.47.14,4.12-4.42,4.12-6.55v-31.7c0-7.66,0-11.92,2.68-18.28,1.25-2.96,5.65-9.38,7.74-13.32,6.48-12.24,9.48-26.35,8.6-40.18"/>
  <path class="cls-1" d="m445.95,167.46c0,7.23-3.16,11.94-9.49,14.12-2.21.78-4.58,1.16-7.12,1.16-5.34,0-10.28-1.61-14.84-4.84l4.74-8.94c3.33,3.03,6.59,4.55,9.78,4.55,1.43,0,2.66-.34,3.65-1.01,1.16-.76,1.75-1.84,1.75-3.23,0-1.27-.64-2.33-1.93-3.17-.96-.63-2.58-1.28-4.85-1.93-2.75-.81-4.48-1.38-5.19-1.69-1.13-.48-2.09-1.05-2.88-1.69-2.27-1.88-3.41-4.72-3.41-8.51s1.17-7.24,3.53-9.85c2.74-3.06,6.42-4.59,11-4.59s9.11,1.15,13.53,3.47l-4.42,8.64c-2.42-1.92-4.86-2.88-7.32-2.88-1.19,0-2.25.31-3.19.92-1.06.69-1.59,1.61-1.59,2.78s.69,2.11,2.09,2.94c.63.37,2.5,1.02,5.63,1.95,3.92,1.15,6.72,2.78,8.38,4.89,1.44,1.79,2.16,4.1,2.16,6.92m-49.84-14.81c0-1.53-.56-2.81-1.67-3.85-1.04-.98-2.72-1.47-5.04-1.47h-2.07v10.7h2.07c2.34,0,4.02-.49,5.04-1.47,1.11-1.07,1.67-2.37,1.67-3.9Zm15.57,28.94h-13.77l-10.57-16.33v16.33h-11.08v-42.73h17.25c5.05,0,8.78,1.52,11.2,4.55,1.95,2.44,2.94,5.32,2.94,8.62,0,3.79-1.12,6.81-3.37,9.06-1.44,1.44-3.43,2.44-5.95,3.01l13.36,17.49Zm-42.49,0h-24.28v-42.73h24.28v9.22h-13.2v7.37h12.49v9.22h-12.49v7.69h13.2v9.22Zm-29.16-33.5h-9.22v33.5h-11.08v-33.5h-9.03v-9.22h29.34v9.22Zm-30.18,0h-9.22v33.5h-11.08v-33.5h-9.03v-9.22h29.34v9.22Zm-47.79,17.62l-4.64-13.64-4.71,13.64h9.35Zm17.55,15.89h-11.85l-2.75-7.43h-15.32l-2.94,7.43h-11.72l16.41-42.73h12.11l16.07,42.73Zm-47.63,0h-11.08l-3.15-24.6-10.31,24.6h-4.4l-9.84-24.6-3.62,24.6h-11.08l7.24-42.73h11.02l8.63,22.8,9.12-22.8h11.08l6.41,42.73Zm104.62-74.02c0-2.96-.82-5.54-2.47-7.74-2.2-2.91-5.46-4.38-9.8-4.38h-2.53v24.28h2.53c4.37,0,7.62-1.46,9.8-4.38,1.64-2.22,2.47-4.82,2.47-7.78Zm11.53,0c0,4.45-1.33,8.56-4.01,12.35-2.68,3.79-6.1,6.42-10.27,7.88-2.21.77-4.45,1.15-6.75,1.15h-16.38v-42.73h16.38c4,0,7.71,1.12,11.12,3.35,3.35,2.17,5.93,5.07,7.72,8.7,1.46,3,2.19,6.1,2.19,9.29Zm-46.39,21.38h-11.08l-20.43-26.17v26.17h-11.08v-42.73h11.08l20.43,26.14v-26.14h11.08v42.73Zm-51.6,0h-11.08v-42.73h11.08v42.73Zm-18.16,0h-11.08l-3.15-24.6-10.31,24.6h-4.4l-9.84-24.6-3.62,24.6h-11.08l7.24-42.73h11.02l8.63,22.8,9.12-22.8h11.08l6.41,42.73Z"/>
</svg>